<svg width="356" height="356" viewBox="0 0 356 356" fill="none" xmlns="http://www.w3.org/2000/svg">
<g clip-path="url(#clip0)">
<path d="M346 177.68C346 262.39 271.53 332.361 178 332.361C84.4696 332.361 10 262.39 10 177.68C10 92.9709 84.4696 23 178 23C271.53 23 346 92.9709 346 177.68Z" fill="white" stroke="black" stroke-width="20"/>
<path d="M138.041 233.381C170.884 250.376 188.385 250.385 217.959 233.381" stroke="black" stroke-width="8" stroke-linecap="round"/>
<ellipse cx="178" cy="197.66" rx="24.2177" ry="13.9252" fill="black"/>
<path fill-rule="evenodd" clip-rule="evenodd" d="M73.9241 196.549C50.8615 209.186 36.9026 227.143 48.4339 269.707C12.6929 219.492 6.63099 188.949 21.7298 130.042C103.056 86.1467 146.119 114.08 140.684 147.334C136.675 171.865 114.8 180.109 94.3415 187.82C87.0678 190.561 79.9731 193.235 73.9241 196.549ZM96.3401 161.939C103.696 161.939 109.66 155.975 109.66 148.619C109.66 141.263 103.696 135.299 96.3401 135.299C88.9839 135.299 83.0204 141.263 83.0204 148.619C83.0204 155.975 88.9839 161.939 96.3401 161.939Z" fill="black"/>
<path fill-rule="evenodd" clip-rule="evenodd" d="M282.526 196.549C305.588 209.186 319.547 227.143 308.016 269.707C343.757 219.492 349.819 188.949 334.72 130.042C253.394 86.1467 210.331 114.08 215.766 147.334C219.775 171.865 241.65 180.11 262.108 187.82C269.382 190.561 276.477 193.235 282.526 196.549ZM260.11 161.939C252.754 161.939 246.79 155.975 246.79 148.619C246.79 141.263 252.754 135.299 260.11 135.299C267.466 135.299 273.43 141.263 273.43 148.619C273.43 155.975 267.466 161.939 260.11 161.939Z" fill="black"/>
</g>
<defs>
<clipPath id="clip0">
<rect width="356" height="356" fill="white"/>
</clipPath>
</defs>
</svg>
